/* XPM */
static char *_1a661c035aa435eca5801d149c65115GzglaBQM2SOs19Vj[] = {
/* columns rows colors chars-per-pixel */
"38 64 128 2 ",
"   c #151314",
".  c #1D1311",
"X  c #1F1814",
"o  c #12151A",
"O  c #161D1E",
"+  c #191D1E",
"@  c #221713",
"#  c #231A16",
"$  c #2D1C12",
"%  c #251D19",
"&  c #2B1D1A",
"*  c #311E14",
"=  c #2D231D",
"-  c #342216",
";  c #3A2417",
":  c #34231B",
">  c #3B2619",
",  c #3E291B",
"<  c #171C21",
"1  c #191F21",
"2  c #1B2224",
"3  c #1E242A",
"4  c #2F2720",
"5  c #2B2827",
"6  c #202729",
"7  c #222A2C",
"8  c #2E2D2F",
"9  c #332720",
"0  c #342A23",
"q  c #3E2E25",
"w  c #362B28",
"e  c #3D2F28",
"r  c #252D31",
"t  c #273135",
"y  c #283136",
"u  c #263038",
"i  c #2A343B",
"p  c #333334",
"a  c #363739",
"s  c #363839",
"d  c #3A3B3C",
"f  c #422C1D",
"g  c #4A2F1E",
"h  c #4B311F",
"j  c #432F22",
"k  c #463122",
"l  c #4C3524",
"z  c #4F3827",
"x  c #46352B",
"c  c #4A3629",
"v  c #4F3928",
"b  c #523622",
"n  c #543926",
"m  c #5A3B26",
"M  c #543C2A",
"N  c #5A3E2A",
"B  c #483B34",
"V  c #533E31",
"C  c #613F2A",
"Z  c #57402D",
"A  c #5C412D",
"S  c #574233",
"D  c #5D4432",
"F  c #5E4837",
"G  c #53443B",
"H  c #5D4939",
"J  c #63442D",
"K  c #66482F",
"L  c #69482F",
"P  c #624631",
"I  c #654933",
"U  c #6B4D34",
"Y  c #634D3B",
"T  c #6A4F39",
"R  c #704F36",
"E  c #6F5037",
"W  c #6A5038",
"Q  c #6E5239",
"!  c #6E563D",
"~  c #715137",
"^  c #735339",
"/  c #73543A",
"(  c #73543B",
")  c #745439",
"_  c #755439",
"`  c #75563C",
"'  c #78573B",
"]  c #78573C",
"[  c #75583D",
"{  c #79583C",
"}  c #7A5B3F",
"|  c #7C5B3E",
" . c #7E5D3F",
".. c #2E3B48",
"X. c #3D3F41",
"o. c #323F4D",
"O. c #3E4245",
"+. c #3D424A",
"@. c #354353",
"#. c #3B4D63",
"$. c #414447",
"%. c #41464E",
"&. c #564A45",
"*. c #554B49",
"=. c #474E57",
"-. c #484E57",
";. c #4A515B",
":. c #695140",
">. c #735B45",
",. c #7C5B40",
"<. c #795C40",
"1. c #7B5E43",
"2. c #7D5C40",
"3. c #7E5F44",
"4. c #715D4A",
"5. c #605A58",
"6. c #7E6146",
"7. c #7D664C",
"8. c #445973",
"9. c #815F42",
"0. c #816043",
"q. c #816144",
"w. c #846346",
"e. c #836446",
"r. c #856446",
"t. c #806549",
"y. c #886648",
"u. c #896849",
/* pixels */
"% 9 q q q q q q j j j j j j j q q q q q q q q q q j j q q q j j q q q q q 9 ",
"c U U ^ _ ` _ ' ] ] _ _ _ ` ` _ ^ ^ ^ ~ ~ _ _ ' } } _ U U R _ _ ^ ~ U U U T ",
"M e.[ U 1.3.} _ ' |  .| } 2.2.2. .} _ ^ _ _ ' } } } } _ ` ` ` } _ U U I _ } ",
"M q.q.1.! [ ^ U U ~ _ _ _ _ ] ] _ _ _ _ } | } } } } } } } } ` / ^ U E 2.2.} ",
"M 2.q.q.^ Q A A A J J J A J J J J J J J U U U I I K I I I T T I W 1.2.y.0.` ",
"M } 2.q.} ` n b h m b n h h b b b b b f m m l b n l g l k l l g I q.0.y.q.} ",
"v ] } 2.} ` A J m J A J m m C m m N J h m J m J J m h N m N A m T q.9.u.w.` ",
"c ` } 2.2.` J J m N J J m A J m J J U l m J J J J N l N J J J N T 6.2.y.r._ ",
"c ` } } 2./ J J m J J J m A L N J L U l N J K U U J b N J A J J T 6.,.w.q.^ ",
"c _ ` } } E J I A J J J m J L J J L L h A L U U R J b J L J L J T 6.1.0.0.U ",
"a 5.>.} } U J U J I J J m J U J U U U h J U U E U J b J U U U J W 6.} 2.} K ",
"r =.4.2.} U J U J U U U N J U J U U U b J U U E U J b J U } ~ J U } [ } ~ A ",
"3 O.>.2.` ^ J J A U U U N J U J U ~ U b I U ~ E U J b J U } _ U U Q _ ^ U A ",
"1 d >.2.` / J J A U U U A J U P U ~ ~ m I E ^ ^ U P m J U _ _ ~ U E / U U A ",
"9 H 7.2.` _ K J A U U U A I U P U ` ^ m I E ^ ^ U I m P U ] _ R U U ^ U U A ",
"c 6.t._ _ _ I J J U U U A P I J U ^ U m I U Q Q U J m J U ` ^ U U U ^ U U J ",
"c 1.1.U E _ U J J U U L J J J N J J J N J P P J J J N J P U U J J U ^ U ~ J ",
"c 1.[ I J N N C C J J J J N m m m m m N N N A J C C J J J J C b N U Q U _ P ",
"c } ` U A x c N m m m m N N m m m m m m b b m m m m m m m m m h N U E I _ P ",
"c ` / U U m h l h g g g l l g g g h l g g g h l h g g h l l f f M ^ E P E J ",
"c ` ^ Q _ I h f > f > f , f k ; , k f ; f f f f f f > > ; , , , M ` U J U A ",
"c ` / ^ ` U m b l b b N f n J k k m l f m b n n k k f h k l l l N ` U A I A ",
"c ` / Q ^ U A n m A A K l M U n M A A k A A A A n l f m m N m m A [ U A I A ",
"c ` / U ^ U A N m J A J l N I M N P A l P P A A N n k A N N N m A [ U A U A ",
"c / ^ U U E A A N P A J n N U N P P J b P I J J A N l A A P A N J ` U A U A ",
"x / Q Q U T A P A I A I m A U A I U I n I U I I P N l J I Q P A P ` U P U A ",
"x ^ Q / / Q P P A I A I N P U A I U I M I E I I J N l J U 1.T J A Q U P Q P ",
"k Q U T T U D I J I A U A P U A U ^ I M U Q T T J N l P U 1.^ P A U U P Q U ",
"j U U I P I A I A P A T A P Q P T / I M Q Q T U P m l P I ` ^ P A U U A Q U ",
"e Y Y F S F S H S S S Y V S T S Y Y S V Y :.Y Y F M c S H :.Y H S Y Y S Y H ",
"7 X.X.d d d s s d $.s d s d d d d d s s d X.X.$.X.a a d d X.d O.;.-.%.%.%.+.",
"< 7 t y 7 7 7 3 r i r i y 7 7 r r r r i r 7 r i i 7 7 r y r r t @.o.#.8.@.i ",
"o 3 7 7 3 3 3 3 6 r 6 r 7 6 3 6 6 6 6 7 6 6 6 r r 6 6 6 7 6 7 7 i i @.#...r ",
"o O 1 1 < + + O O 2 2 2 2 + 1 2 2 2 1 2 2 1 1 2 2 1 1 1 2 2 2 2 r u 3 3 2 7 ",
"X = 4 = 9 = % % # # # X X # # # % % # # # % % = % # X # # % # % 5 p 0 0 w 8 ",
": N A N A M k c > > , ; * , f , f f , > f l c M f > > f f f , , c G &.*.&.B ",
": P I A A M l m f l l k , k k k l l k k M A m M n k j M M M k k m I Y Y T M ",
": I I A J m v M k n M l f l c c M M l l N A M m m l k m M A l l A I T T Q N ",
", I P D I m l m c M M M j z l l N N v l A A m m m l k M M A l M A I I I Q N ",
"0 I D D I m M N v M M m k M m n N A M v D A M N N l k A M A M m D I I I U M ",
": D D S P m M A M m M m k m M z M A M M D A A A A l k A A A N N D I I I P M ",
": D D A D m m A M M A A l M A z Z D M M P D A A A l k A A D D A A P I P A l ",
"9 D A Z A m m A m M D M l M Z v A D n M I D S D S l k A A D D A A D I P A l ",
": A M m A m M Z M M m M k z v c m m k l A Z M Z M k j m M M M v m D P D A l ",
": A m m M l l k k f f f f f f f f f f f f f f f f f f f f f f , k A P A N l ",
": A M M k j , f f f f , > , f f f f f f , , f f , f f f f f f , k A D A N l ",
": A M c , w 0 , f f f , , , , , , , f f , , , , , , f f f f , > k A A A Z z ",
"= M v c , - > , f , , , , , , , , , f , , , , , , , , , ; - - * j N A M A M ",
"& M M v k - * - * * - * $ * * $ - - $ * > - * * $ $ $ $ $ $ $ $ , m M m N z ",
"& M v v c f f f ; > f , > f f > f j > > M l > , f f ; j j j f , f m m M M M ",
"& z n l c k l M k c c c k M M k c M k f A A k l M M f M M v l k j M m M M v ",
"% x l l k k M A z M M v k m m l z M l j A A c c m m k m M M z l k l m M M l ",
"3 a c k k f M D M A A M k m M l m N l j M A l M M M c A A M v n k c M c l c ",
"< p x k k f z D M A A M c m A l m A l k M A z m A A c A A M M M k c l k k k ",
"o 5 x k j f l A M A A M l m A n m D l k N A v M A Z l M N M M M c k c j k k ",
"  = k k f f l N v M M M l m A z m A l k M A M M Z M c m M M M M l f k j k k ",
"# f k k f f l m l z M M l M M l M M l k M A M M M m c M M M M M k f k j j f ",
"# f j k f , l m l l M M c m m c M M l k M A M A M m c M M A M l k f k k f f ",
"# f f f f , c m c l v M l M M c v M c x M A Z M M M l M M m z c j , g g f , ",
"# f , f f , j l k k c c j M c j k c j , v M v v c k , l c c k k , ; f j , , ",
"# , , , > - > > > , , , f f f f f f f f k k k j j f f f j k f f , - f k > > ",
"@ > ; - - > > > > > > > , , , , , , , f , , j , > > , , , f , , f , , , > > ",
". - - * ; > , , , , , , , , > , > > , , > ; > ; - ; > , , , > > > , > - * ; ",
". $ $ * * - - - - ; ; ; > ; - - - - ; - * $ $ - - - - - - > - - - - - * $ $ "
};
